<svg width="87" height="22" viewBox="0 0 87 22" fill="none" xmlns="http://www.w3.org/2000/svg">
<path d="M34.9752 8.61798C33.539 8.61798 32.1431 8.97714 31.9552 9.05695C31.7673 9.11016 31.5928 9.26979 31.6733 9.58904L31.8612 10.5734C31.9015 10.8394 32.076 11.0523 32.3579 10.9459C32.8679 10.7995 34.0357 10.6266 34.841 10.6266C35.7806 10.6266 36.1027 11.1587 36.0624 12.2761C36.0624 12.2761 35.2571 12.0233 34.3578 12.0233C32.1163 12.0233 30.8412 13.2205 30.8412 14.7769C30.8412 16.6525 32.0626 17.7699 33.8209 17.7699C35.2034 17.7699 36.0758 17.158 36.5993 16.6658L36.8543 17.2511C36.9751 17.5038 37.0825 17.557 37.2302 17.557H37.8744C38.1026 17.557 38.2905 17.3708 38.2905 17.1447V12.4224C38.3039 10.0413 37.7268 8.61798 34.9752 8.61798ZM36.0087 15.0562C36.0087 15.0695 36.0087 15.0828 35.9953 15.0961C35.8611 15.4287 35.19 16.0007 34.4115 16.0007C33.5927 16.0007 33.1364 15.5085 33.1364 14.7636C33.1364 13.9921 33.6867 13.5132 34.7068 13.5132C35.2839 13.5132 35.7671 13.6861 35.9416 13.7526C35.9819 13.7659 36.0087 13.8058 36.0087 13.8457V15.0562Z" fill="white"/>
<path d="M43.7669 12.1164C42.9482 11.7706 42.5052 11.5711 42.5052 11.172C42.5052 10.8927 42.7602 10.6 43.3508 10.6C44.0756 10.6 44.693 10.8527 45.1091 11.039C45.297 11.1188 45.5252 11.0789 45.6595 10.866L46.1561 9.86838C46.2769 9.64225 46.1561 9.41611 45.9682 9.25648C45.485 8.95053 44.6528 8.61798 43.3508 8.61798C41.1898 8.61798 40.1832 9.85508 40.1832 11.172C40.1832 12.5022 40.9482 13.3003 42.6529 13.9388C43.8206 14.3911 44.3172 14.7503 44.3172 15.1493C44.3172 15.5218 44.0085 15.7745 43.3374 15.7745C42.4247 15.7745 41.7938 15.4553 41.3912 15.2025C41.1764 15.0695 40.9751 15.1493 40.8811 15.3489L40.304 16.4796C40.21 16.6658 40.304 16.8786 40.4248 16.9584C40.9214 17.3043 41.8341 17.7566 43.3106 17.7566C45.5252 17.7566 46.7198 16.5195 46.7198 15.136C46.693 13.4068 45.4715 12.8082 43.7669 12.1164Z" fill="white"/>
<path d="M56.3436 15.3489C55.6993 15.3489 55.1758 15.8943 55.1758 16.5195C55.1758 17.1447 55.7127 17.6768 56.3436 17.6768C56.9878 17.6768 57.5247 17.1314 57.5247 16.5195C57.5247 15.8943 56.9878 15.3489 56.3436 15.3489Z" fill="white"/>
<path d="M62.6385 8.61798C61.2023 8.61798 59.8064 8.97714 59.6185 9.05695C59.4306 9.11016 59.2561 9.26979 59.3366 9.58904L59.5245 10.5734C59.5648 10.8394 59.7393 11.0523 60.0212 10.9459C60.5312 10.7995 61.699 10.6266 62.5043 10.6266C63.4438 10.6266 63.766 11.1587 63.7257 12.2761C63.7257 12.2761 62.9204 12.0233 62.0211 12.0233C59.7796 12.0233 58.5045 13.2205 58.5045 14.7769C58.5045 16.6525 59.7259 17.7699 61.4842 17.7699C62.8667 17.7699 63.7391 17.158 64.2626 16.6658L64.5176 17.2511C64.6384 17.5038 64.7458 17.557 64.8935 17.557H65.5377C65.7659 17.557 65.9538 17.3708 65.9538 17.1447V12.4224C65.9538 10.0413 65.3901 8.61798 62.6385 8.61798ZM63.672 15.0562C63.672 15.0695 63.672 15.0961 63.6586 15.1094C63.5244 15.442 62.8398 16.014 62.0748 16.014C61.256 16.014 60.7997 15.5218 60.7997 14.7769C60.7997 14.0054 61.35 13.5265 62.3701 13.5265C62.9204 13.5265 63.4036 13.6861 63.5915 13.7526C63.6452 13.7659 63.672 13.8191 63.672 13.8723V15.0562Z" fill="white"/>
<path d="M29.8882 15.2824H28.3178H27.687H26.2911H24.6938V15.1494V8.20567V6.70252V5.74608V5.55985C24.6938 4.93465 24.1838 4.42917 23.5529 4.42917H22.251C22.2241 4.42917 22.1973 4.45577 22.1973 4.48238V5.74608V6.70252V8.20567V15.1494V15.4021V16.4264V17.5039C22.1973 17.5305 22.2241 17.5571 22.251 17.5571H23.3382H23.5395H24.3717H24.6267H27.6736H28.3044H28.8681C29.4453 17.5571 29.9151 17.0915 29.9151 16.5195V15.3356C29.9285 15.309 29.9016 15.2824 29.8882 15.2824Z" fill="white"/>
<path d="M54.357 16.6924L54.102 15.5351C54.0617 15.3223 53.847 15.2159 53.6054 15.309C53.3772 15.3888 52.6524 15.5883 52.2631 15.5883C51.8202 15.5883 51.5383 15.4553 51.5383 14.87V10.9326H51.9276H52.5316H53.0416C53.5785 10.9326 54.0215 10.4936 54.0215 9.96153V8.85745C54.0215 8.83085 54.008 8.81755 53.9812 8.81755H51.9276H51.5383V8.28546V7.54054V7.06166C51.5383 6.46306 51.0417 5.97089 50.4377 5.97089H49.1894C49.1626 5.97089 49.1357 5.99749 49.1357 6.02409V7.54054V8.81755H48.8539C48.317 8.81755 47.8741 9.25652 47.8741 9.7886V10.8927C47.8741 10.9193 47.8875 10.9326 47.9143 10.9326H49.1357V14.9498C49.1357 16.4663 49.6324 17.7699 51.6054 17.7699C52.5182 17.7699 53.7799 17.3708 54.0886 17.1979C54.3302 17.0915 54.4241 16.9186 54.357 16.6924Z" fill="white"/>
<path d="M82.7586 8.56482C80.8795 8.56482 79.8728 9.86843 79.8728 9.86843L79.6446 9.16342C79.5641 8.91068 79.4299 8.75105 79.2285 8.75105H78.5171C78.289 8.75105 78.101 8.93728 78.101 9.16342V18.2488V19.6854V20.0446V21.9468C78.101 21.9734 78.1279 22 78.1547 22H79.403C80.007 22 80.5036 21.5078 80.5036 20.9092V20.0446V19.6854V17.3442C80.9063 17.4906 81.7519 17.7034 82.6244 17.7034C85.2685 17.7034 87 15.6948 87 13.1408C86.9732 10.4936 85.1612 8.56482 82.7586 8.56482ZM82.3156 15.5618C81.4298 15.5618 80.7989 15.2558 80.5707 15.1228C80.5171 15.0962 80.4768 15.0297 80.4768 14.9632V11.9835C80.4768 11.9569 80.4768 11.9303 80.4902 11.9037C80.6915 11.4115 81.309 10.7331 82.423 10.7331C83.8055 10.7331 84.5035 11.9303 84.5035 13.1541C84.5169 14.3779 83.7652 15.5618 82.3156 15.5618Z" fill="white"/>
<path d="M72.4397 8.56302C70.5606 8.56302 69.5539 9.86663 69.5539 9.86663L69.3258 9.16162C69.2452 8.90888 69.111 8.74925 68.9097 8.74925H68.1983C67.9701 8.74925 67.7822 8.93548 67.7822 9.16162V18.247V19.6836V20.0428V21.945C67.7822 21.9716 67.809 21.9982 67.8359 21.9982H69.0842C69.6882 21.9982 70.1848 21.506 70.1848 20.9074V20.0428V19.6836V17.3424C70.5875 17.4888 71.4331 17.7016 72.3055 17.7016C74.9497 17.7016 76.6812 15.693 76.6812 13.139C76.6543 10.4918 74.8423 8.56302 72.4397 8.56302ZM71.9968 15.56C71.1109 15.56 70.4801 15.254 70.2519 15.121C70.1982 15.0944 70.1579 15.0279 70.1579 14.9614V11.9817C70.1579 11.9551 70.1579 11.9285 70.1714 11.9019C70.3727 11.4097 70.9901 10.7313 72.1042 10.7313C73.4867 10.7313 74.1846 11.9285 74.1846 13.1523C74.198 14.3761 73.4464 15.56 71.9968 15.56Z" fill="white"/>
<path fill-rule="evenodd" clip-rule="evenodd" d="M10.3829 10.2642V17.5958H17.7993C17.7993 13.5467 14.4789 10.2642 10.3829 10.2642Z" fill="white"/>
<path fill-rule="evenodd" clip-rule="evenodd" d="M0 4.44677e-06V8.79791H8.89967C8.89967 3.93896 4.91515 4.44677e-06 0 4.44677e-06Z" fill="white"/>
<path fill-rule="evenodd" clip-rule="evenodd" d="M16.8762 2.93263C16.8762 4.55228 15.5439 5.86527 13.9096 5.86527C12.2754 5.86527 10.9431 4.55228 10.9431 2.93263C10.9431 1.31298 12.2754 0 13.9096 0C15.5439 0 16.8762 1.31298 16.8762 2.93263Z" fill="white"/>
<path fill-rule="evenodd" clip-rule="evenodd" d="M8.89966 17.5958L8.89967 8.79791H0C0 13.6569 3.98451 17.5958 8.89966 17.5958Z" fill="white"/>
</svg>
