<svg width="16" height="16" viewBox="0 0 16 16" fill="none" xmlns="http://www.w3.org/2000/svg">
<path fill-rule="evenodd" clip-rule="evenodd" d="M12.5983 3.40171C12.7988 3.60219 12.7988 3.92724 12.5983 4.12772L4.12772 12.5983C3.92724 12.7988 3.60219 12.7988 3.40171 12.5983C3.20122 12.3978 3.20122 12.0728 3.40171 11.8723L11.8723 3.40171C12.0728 3.20122 12.3978 3.20122 12.5983 3.40171Z" fill="#262638"/>
<path fill-rule="evenodd" clip-rule="evenodd" d="M3.40171 3.40171C3.60219 3.20122 3.92724 3.20122 4.12772 3.40171L12.5983 11.8723C12.7988 12.0728 12.7988 12.3978 12.5983 12.5983C12.3978 12.7988 12.0728 12.7988 11.8723 12.5983L3.40171 4.12772C3.20122 3.92724 3.20122 3.60219 3.40171 3.40171Z" fill="#262638"/>
</svg>
