<svg width="22" height="22" viewBox="0 0 22 22" fill="none" xmlns="http://www.w3.org/2000/svg">
<path fill-rule="evenodd" clip-rule="evenodd" d="M9.96875 3.5C6.39616 3.5 3.5 6.39616 3.5 9.96875C3.5 13.5413 6.39616 16.4375 9.96875 16.4375C13.5413 16.4375 16.4375 13.5413 16.4375 9.96875C16.4375 6.39616 13.5413 3.5 9.96875 3.5ZM2 9.96875C2 5.56773 5.56773 2 9.96875 2C14.3698 2 17.9375 5.56773 17.9375 9.96875C17.9375 14.3698 14.3698 17.9375 9.96875 17.9375C5.56773 17.9375 2 14.3698 2 9.96875Z" fill="#262638"/>
<path fill-rule="evenodd" clip-rule="evenodd" d="M14.5425 14.5432C14.8354 14.2503 15.3103 14.2503 15.6032 14.5432L19.7798 18.7198C20.0727 19.0127 20.0727 19.4875 19.7798 19.7804C19.4869 20.0733 19.012 20.0733 18.7191 19.7804L14.5425 15.6038C14.2496 15.3109 14.2496 14.836 14.5425 14.5432Z" fill="#262638"/>
</svg>
