<svg width="12" height="12" viewBox="0 0 12 12" fill="none" xmlns="http://www.w3.org/2000/svg">
<path fill-rule="evenodd" clip-rule="evenodd" d="M6 3.78409C5.39751 3.78409 4.90909 4.27251 4.90909 4.875C4.90909 5.4775 5.39751 5.96591 6 5.96591C6.6025 5.96591 7.09091 5.4775 7.09091 4.875C7.09091 4.27251 6.6025 3.78409 6 3.78409ZM4.09091 4.875C4.09091 3.82064 4.94564 2.96591 6 2.96591C7.05436 2.96591 7.90909 3.82064 7.90909 4.875C7.90909 5.92936 7.05436 6.78409 6 6.78409C4.94564 6.78409 4.09091 5.92936 4.09091 4.875Z" fill="#A8A8C8"/>
<path fill-rule="evenodd" clip-rule="evenodd" d="M6 1.53409C5.11394 1.53409 4.26417 1.88608 3.63762 2.51262C3.01108 3.13917 2.65909 3.98894 2.65909 4.875C2.65909 6.41521 3.51962 7.821 4.43371 8.87219C4.88575 9.39204 5.33884 9.81127 5.67901 10.1004C5.80341 10.2061 5.9123 10.2941 6 10.363C6.0877 10.2941 6.1966 10.2061 6.32099 10.1004C6.66116 9.81127 7.11426 9.39204 7.5663 8.87219C8.48038 7.821 9.34091 6.41521 9.34091 4.875C9.34091 3.98894 8.98893 3.13917 8.36238 2.51262C7.73584 1.88608 6.88607 1.53409 6 1.53409ZM6 10.875C5.76541 11.2101 5.76529 11.2101 5.76516 11.21L5.76484 11.2097L5.76393 11.2091L5.76109 11.2071L5.75142 11.2002C5.74322 11.1944 5.73157 11.186 5.71668 11.1751C5.68692 11.1534 5.64423 11.1218 5.59045 11.0807C5.48294 10.9985 5.33088 10.8783 5.14912 10.7238C4.78616 10.4153 4.30176 9.96734 3.8163 9.40907C2.85538 8.30401 1.84091 6.7098 1.84091 4.875C1.84091 3.77194 2.2791 2.71406 3.05908 1.93408C3.83906 1.1541 4.89694 0.715912 6 0.715912C7.10306 0.715912 8.16094 1.1541 8.94093 1.93408C9.72091 2.71406 10.1591 3.77194 10.1591 4.875C10.1591 6.7098 9.14462 8.30401 8.18371 9.40907C7.69825 9.96734 7.21384 10.4153 6.85089 10.7238C6.66912 10.8783 6.51707 10.9985 6.40955 11.0807C6.35577 11.1218 6.31308 11.1534 6.28332 11.1751C6.26844 11.186 6.25679 11.1944 6.24859 11.2002L6.23892 11.2071L6.23608 11.2091L6.23517 11.2097L6.23484 11.21C6.23471 11.2101 6.2346 11.2101 6 10.875ZM6 10.875L6.2346 11.2101C6.09374 11.3087 5.90626 11.3087 5.76541 11.2101L6 10.875Z" fill="#A8A8C8"/>
</svg>
