<svg width="24" height="24" viewBox="0 0 16 16" fill="none" xmlns="http://www.w3.org/2000/svg">
<path fill-rule="evenodd" clip-rule="evenodd" d="M7.29415 2.86631C4.84873 2.86631 2.86634 4.8487 2.86634 7.29412C2.86634 9.73953 4.84873 11.7219 7.29415 11.7219C9.73956 11.7219 11.722 9.73953 11.722 7.29412C11.722 4.8487 9.73956 2.86631 7.29415 2.86631ZM1.8396 7.29412C1.8396 4.28165 4.28168 1.83957 7.29415 1.83957C10.3066 1.83957 12.7487 4.28165 12.7487 7.29412C12.7487 10.3066 10.3066 12.7487 7.29415 12.7487C4.28168 12.7487 1.8396 10.3066 1.8396 7.29412Z" fill="white"/>
<path fill-rule="evenodd" clip-rule="evenodd" d="M10.4249 10.4252C10.6254 10.2248 10.9504 10.2248 11.1509 10.4252L14.0098 13.2841C14.2103 13.4846 14.2103 13.8096 14.0098 14.0101C13.8093 14.2106 13.4842 14.2106 13.2838 14.0101L10.4249 11.1512C10.2244 10.9508 10.2244 10.6257 10.4249 10.4252Z" fill="white"/>
</svg>
