<svg width="24" height="24" viewBox="0 0 16 16" fill="none" xmlns="http://www.w3.org/2000/svg">
<path fill-rule="evenodd" clip-rule="evenodd" d="M7.43042 1.54641C7.59787 1.43085 7.79651 1.36896 7.99996 1.36896C8.20342 1.36896 8.40206 1.43085 8.56951 1.54641C8.73568 1.6611 8.86334 1.82325 8.93581 2.01163L10.2276 5.2646L13.6872 5.48913C14.6235 5.5499 14.9498 6.72409 14.2624 7.29625L11.6044 9.50852C11.6043 9.50856 11.6044 9.50848 11.6044 9.50852C11.6042 9.50871 11.6039 9.50907 11.6038 9.50933C11.6037 9.50965 11.6037 9.50999 11.6038 9.51031L11.6041 9.51162L12.4613 12.8835C12.6783 13.7372 11.7568 14.5136 10.9515 14.0034L7.99996 12.1335L5.2582 13.8705C4.37703 14.4288 3.36134 13.5809 3.60085 12.6387L4.39578 9.51163L4.39612 9.51031C4.3962 9.50999 4.39619 9.50965 4.39609 9.50933C4.39601 9.50907 4.39586 9.50883 4.39567 9.50864C4.39563 9.5086 4.39572 9.50868 4.39567 9.50864L1.73757 7.29625L2.06598 6.90167M2.06598 6.90167L1.73757 7.29625C1.05013 6.72409 1.37645 5.5499 2.31271 5.48913L5.77236 5.2646L7.06412 2.01163C7.13659 1.82325 7.26424 1.66109 7.43042 1.54641M7.9847 12.1238L8.25944 11.6901L7.98376 12.1232C7.98407 12.1234 7.98438 12.1236 7.9847 12.1238ZM8.53511 11.2571C8.535 11.257 8.53523 11.2571 8.53511 11.2571L11.4594 13.1098L10.6094 9.7659C10.6093 9.76567 10.6093 9.76544 10.6092 9.76522C10.5612 9.57791 10.567 9.38087 10.6259 9.19668C10.6848 9.01227 10.7946 8.84825 10.9426 8.72347L10.9451 8.72141L13.5992 6.51232L10.143 6.28801C9.95243 6.27439 9.76963 6.2069 9.6159 6.09341C9.46279 5.98039 9.3448 5.82636 9.27553 5.64913L7.99996 2.43692L6.72439 5.64913C6.65513 5.82635 6.53714 5.98039 6.38403 6.09341C6.2303 6.2069 6.04749 6.27438 5.85689 6.288L5.85356 6.28824L2.40067 6.51232L5.05483 8.72142L5.05728 8.72347C5.20531 8.84825 5.31511 9.01227 5.37407 9.19668C5.43293 9.38081 5.43871 9.5778 5.39075 9.76505C5.39068 9.76533 5.39061 9.76562 5.39054 9.7659L4.59594 12.8917C4.58813 12.9224 4.59183 12.9422 4.59684 12.9557C4.60279 12.9717 4.61421 12.9874 4.62999 12.9994C4.64578 13.0114 4.66036 13.0155 4.66966 13.0161C4.67573 13.0165 4.68762 13.0166 4.7087 13.0032L7.46481 11.2571C7.46463 11.2572 7.46499 11.2569 7.46481 11.2571C7.62462 11.1555 7.81059 11.1012 7.99996 11.1012C8.18941 11.1012 8.37527 11.1554 8.53511 11.2571Z" fill="white"/>
</svg>
