<svg width="12" height="12" viewBox="0 0 12 12" fill="none" xmlns="http://www.w3.org/2000/svg">
<path fill-rule="evenodd" clip-rule="evenodd" d="M5.54615 0.85732C5.67958 0.765231 5.83788 0.715912 6 0.715912C6.16213 0.715912 6.32042 0.765231 6.45386 0.85732C6.58628 0.94871 6.688 1.07793 6.74576 1.22804L7.77512 3.82025L10.532 3.99918C11.2781 4.0476 11.5381 4.98328 10.9903 5.43923L8.87227 7.20212C8.87224 7.20215 8.87231 7.20209 8.87227 7.20212C8.87212 7.20228 8.8719 7.20257 8.87184 7.20277C8.87176 7.20303 8.87175 7.2033 8.87182 7.20356L8.87208 7.2046L9.55514 9.89159C9.72807 10.5718 8.99373 11.1906 8.35199 10.784L6 9.29388L3.81516 10.6781C3.11298 11.123 2.30361 10.4473 2.49446 9.69648L3.12792 7.2046L3.12819 7.20356C3.12826 7.2033 3.12825 7.20303 3.12817 7.20277C3.1281 7.20257 3.12799 7.20238 3.12784 7.20222C3.1278 7.20219 3.12787 7.20225 3.12784 7.20222L1.00966 5.43923L1.27136 5.1248M1.27136 5.1248L1.00966 5.43923C0.461859 4.98328 0.721894 4.0476 1.46798 3.99918L4.22489 3.82025L5.25425 1.22804C5.312 1.07793 5.41373 0.948709 5.54615 0.85732M5.98784 9.28615L6.20677 8.94059L5.98709 9.2857C5.98734 9.28585 5.98759 9.28601 5.98784 9.28615ZM6.42645 8.59549C6.42636 8.59543 6.42655 8.59555 6.42645 8.59549L8.75677 10.0719L8.07939 7.40722C8.07934 7.40704 8.0793 7.40686 8.07925 7.40668C8.041 7.25742 8.04559 7.1004 8.09251 6.95363C8.13949 6.80668 8.22699 6.67597 8.34495 6.57654L8.3469 6.5749L10.4619 4.81453L7.70776 4.63578C7.55588 4.62493 7.41021 4.57115 7.2877 4.48071C7.16569 4.39064 7.07167 4.2679 7.01647 4.12668L6 1.56695L4.98353 4.12668C4.92834 4.2679 4.83432 4.39064 4.71231 4.48071C4.5898 4.57115 4.44413 4.62492 4.29225 4.63577L4.28959 4.63596L1.53807 4.81453L3.6531 6.5749L3.65505 6.57654C3.77301 6.67597 3.86051 6.80668 3.90749 6.95363C3.9544 7.10036 3.95901 7.25733 3.92079 7.40655C3.92073 7.40677 3.92068 7.407 3.92062 7.40722L3.28743 9.89806C3.2812 9.92255 3.28415 9.93836 3.28814 9.9491C3.29289 9.96183 3.30198 9.97439 3.31455 9.98393C3.32714 9.99348 3.33876 9.99673 3.34617 9.99724C3.351 9.99758 3.36048 9.9976 3.37728 9.98696L5.57356 8.59549C5.57341 8.59558 5.5737 8.5954 5.57356 8.59549C5.7009 8.51454 5.8491 8.47128 6 8.47128C6.15097 8.47128 6.29907 8.51448 6.42645 8.59549Z" fill="#A8A8C8"/>
</svg>
